<svg width="1049" height="448" viewBox="0 0 1049 448" fill="none" xmlns="http://www.w3.org/2000/svg">
<path d="M28.2289 389.489C44.419 389.489 56.0427 377.036 56.0427 360.845V280.31H135.333C149.862 280.31 161.071 269.517 161.071 254.987C161.071 240.873 150.277 229.664 135.333 229.664H56.0427V161.167H157.75C172.279 161.167 183.488 149.959 183.488 135.844C183.488 121.315 172.694 110.521 157.75 110.521H28.644C12.0388 110.521 0 122.56 0 139.166V360.845C0 377.036 11.6237 389.489 28.2289 389.489Z" fill="#155433"/>
<circle cx="717.462" cy="282.423" r="95.2759" stroke="#242424" stroke-width="2.95841" stroke-linecap="round" stroke-linejoin="round" stroke-dasharray="3.97 11.9"/>
<path d="M600.105 289.791C600.105 341.475 558.207 383.373 506.523 383.373C454.839 383.373 412.941 341.475 412.941 289.791C412.941 238.107 454.839 196.209 506.523 196.209C558.207 196.209 600.105 238.107 600.105 289.791ZM468.294 289.791C468.294 310.904 485.41 328.02 506.523 328.02C527.637 328.02 544.752 310.904 544.752 289.791C544.752 268.678 527.637 251.562 506.523 251.562C485.41 251.562 468.294 268.678 468.294 289.791Z" fill="#25A05F"/>
<path d="M384.866 289.791C384.866 341.475 342.968 383.373 291.284 383.373C239.6 383.373 197.702 341.475 197.702 289.791C197.702 238.107 239.6 196.209 291.284 196.209C342.968 196.209 384.866 238.107 384.866 289.791ZM253.055 289.791C253.055 310.904 270.171 328.02 291.284 328.02C312.397 328.02 329.513 310.904 329.513 289.791C329.513 268.678 312.397 251.562 291.284 251.562C270.171 251.562 253.055 268.678 253.055 289.791Z" fill="#25A05F"/>
<path fill-rule="evenodd" clip-rule="evenodd" d="M156.017 355.335C156.017 353.635 157.395 352.257 159.095 352.257H205.968C207.668 352.257 209.046 353.635 209.046 355.335C209.046 357.035 207.668 358.414 205.968 358.414H159.095C157.395 358.414 156.017 357.035 156.017 355.335Z" fill="#25A05F"/>
<path fill-rule="evenodd" clip-rule="evenodd" d="M371.537 355.335C371.537 353.635 372.915 352.257 374.615 352.257H421.488C423.189 352.257 424.567 353.635 424.567 355.335C424.567 357.035 423.189 358.414 421.488 358.414H374.615C372.915 358.414 371.537 357.035 371.537 355.335Z" fill="#25A05F"/>
<path fill-rule="evenodd" clip-rule="evenodd" d="M118.584 380.294C118.584 378.594 119.962 377.216 121.662 377.216L205.968 377.216C207.668 377.216 209.046 378.594 209.046 380.294C209.046 381.994 207.668 383.373 205.968 383.373L121.662 383.373C119.962 383.373 118.584 381.994 118.584 380.294Z" fill="#25A05F"/>
<path fill-rule="evenodd" clip-rule="evenodd" d="M334.106 380.294C334.106 378.594 335.485 377.216 337.185 377.216L421.491 377.216C423.191 377.216 424.569 378.594 424.569 380.294C424.569 381.994 423.191 383.373 421.491 383.373L337.185 383.373C335.485 383.373 334.106 381.994 334.106 380.294Z" fill="#25A05F"/>
<path fill-rule="evenodd" clip-rule="evenodd" d="M156.017 405.251C156.017 403.551 157.395 402.173 159.095 402.173L243.401 402.173C245.101 402.173 246.479 403.551 246.479 405.251C246.479 406.951 245.101 408.33 243.401 408.33L159.095 408.33C157.395 408.33 156.017 406.951 156.017 405.251Z" fill="#25A05F"/>
<path fill-rule="evenodd" clip-rule="evenodd" d="M371.537 405.251C371.537 403.551 372.915 402.173 374.615 402.173L458.921 402.173C460.621 402.173 462 403.551 462 405.251C462 406.951 460.621 408.33 458.921 408.33L374.615 408.33C372.915 408.33 371.537 406.951 371.537 405.251Z" fill="#25A05F"/>
<path d="M537.117 185.453C544.634 185.453 550.792 179.345 550.102 171.86C546.943 137.588 531.911 105.325 507.374 80.788C479.615 53.0293 441.966 37.4346 402.709 37.4346C363.453 37.4346 325.804 53.0293 298.045 80.788C273.508 105.325 258.476 137.588 255.317 171.86C254.626 179.345 260.785 185.453 268.302 185.453L402.709 185.453H537.117Z" fill="#25A05F"/>
<path d="M421.425 27.2239C421.425 38.4995 413.046 47.6402 402.71 47.6402C392.374 47.6402 383.995 38.4995 383.995 27.2239C383.995 15.9483 392.374 6.80762 402.71 6.80762C413.046 6.80762 421.425 15.9483 421.425 27.2239Z" fill="#155433"/>
<path fill-rule="evenodd" clip-rule="evenodd" d="M402.712 13.6108C396.68 13.6108 390.802 19.1351 390.802 27.2217C390.802 35.3083 396.68 40.8325 402.712 40.8325C408.744 40.8325 414.621 35.3083 414.621 27.2217C414.621 19.1351 408.744 13.6108 402.712 13.6108ZM377.191 27.2217C377.191 12.7571 388.072 0 402.712 0C417.352 0 428.232 12.7571 428.232 27.2217C428.232 41.6863 417.352 54.4434 402.712 54.4434C388.072 54.4434 377.191 41.6863 377.191 27.2217Z" fill="#25A05F"/>
<path d="M342.272 83.3707C340.621 80.6288 337.063 79.7129 334.38 81.4569C314.089 94.6418 298.165 113.411 288.582 135.431C287.275 138.436 288.851 141.864 291.926 142.996C294.962 144.113 298.316 142.566 299.62 139.605C308.218 120.07 322.343 103.388 340.3 91.5625C343.019 89.7717 343.952 86.16 342.272 83.3707Z" fill="#155433"/>
<path d="M365.921 72.8132C364.913 69.7735 361.636 68.1022 358.637 69.225C355.424 70.4279 352.263 71.7618 349.162 73.2233C346.22 74.6101 345.15 78.2011 346.708 81.0569C348.24 83.8667 351.742 84.9057 354.642 83.5522C357.129 82.3915 359.658 81.3213 362.225 80.3436C365.252 79.1905 366.94 75.8881 365.921 72.8132Z" fill="#155433"/>
<rect x="775.308" y="105.482" width="64.6515" height="279.022" rx="32.3258" fill="#155433"/>
<path d="M819.543 284.125C819.543 339.563 774.602 384.505 719.163 384.505C663.725 384.505 618.783 339.563 618.783 284.125C618.783 228.687 663.725 183.745 719.163 183.745C774.602 183.745 819.543 228.687 819.543 284.125ZM678.157 284.125C678.157 306.772 696.516 325.131 719.163 325.131C741.81 325.131 760.169 306.772 760.169 284.125C760.169 261.478 741.81 243.119 719.163 243.119C696.516 243.119 678.157 261.478 678.157 284.125Z" fill="#155433"/>
<path d="M910.82 399.714C918.785 395.558 927.789 387.246 932.291 378.588C934.369 376.164 935.408 373.394 935.408 371.316C935.408 369.238 935.062 366.467 932.984 362.658L870.993 207.508H929.521L954.802 290.624C957.572 300.667 960.689 313.134 963.113 322.139H964.499C966.577 313.134 969.347 300.321 971.771 290.624L992.55 207.508H1049L1009.52 319.022C985.278 386.207 969.001 413.22 949.953 430.19C931.945 446.12 900.266 450.134 895.032 444.9C889.798 439.666 887.454 430.916 888.053 420.474C888.053 413.496 902.508 404.562 910.82 399.714Z" fill="#155433"/>
</svg>
